<svg xmlns="http://www.w3.org/2000/svg" xmlns:xlink="http://www.w3.org/1999/xlink" viewBox="0 0 489.36 169.14"><defs><style>.cls-1{fill:#f5f5f5;}.cls-2{fill:url(#linear-gradient);}.cls-3{fill:url(#linear-gradient-2);}.cls-4{fill:url(#linear-gradient-3);}</style><linearGradient id="linear-gradient" x1="6.11" y1="-376.68" x2="96.6" y2="-286.2" gradientTransform="matrix(1, 0, 0, -1, 0, -193.44)" gradientUnits="userSpaceOnUse"><stop offset="0" stop-color="#f9c300"/><stop offset="1" stop-color="#f2e900"/></linearGradient><linearGradient id="linear-gradient-2" x1="-29.09" y1="-341.48" x2="61.4" y2="-250.99" xlink:href="#linear-gradient"/><linearGradient id="linear-gradient-3" x1="-69.15" y1="117.36" x2="34.29" y2="13.92" gradientTransform="matrix(1, 0, 0, 1, 0, 0)" xlink:href="#linear-gradient"/></defs><title>logo-iExec-white</title><g id="Layer_2" data-name="Layer 2"><g id="Layer_1-2" data-name="Layer 1"><path class="cls-1" d="M228.54,40.33a10.59,10.59,0,1,0,.08.05Z"/><path class="cls-1" d="M249.16,113.14v6.49a4.44,4.44,0,0,1-4.35,4.51H201.62a2.48,2.48,0,0,1-2.48-2.48h0V111.23a2.48,2.48,0,0,1,2.48-2.48h14.57V85.14H201.5A2.48,2.48,0,0,1,199,82.66h0V72.33a2.48,2.48,0,0,1,2.48-2.48h25.71c2.9,0,5.25,2.64,5.25,5.9v33h12.28A4.43,4.43,0,0,1,249.16,113.14Z"/><path class="cls-1" d="M426.29,100.69H394.21c.75,6.33,5,10.58,11.64,10.58A15.34,15.34,0,0,0,417.12,107a3.21,3.21,0,0,1,4.51-.08l5.3,5.12a2.29,2.29,0,0,1,.09,3.19Q418.89,124,406.27,124c-8.15,0-14.7-2.43-19.78-7.29S379,105.34,379,97.2q0-11.9,7-19.67c4.65-5.18,10.79-7.83,18.51-7.83,8.14,0,14.28,2.65,18.51,7.83a28.21,28.21,0,0,1,6.45,18.72v1.43A3.1,3.1,0,0,1,426.29,100.69ZM394.5,91.91h19.14c0-5.92-3.17-10.26-9.2-10.26-6.23,0-9.41,4.23-9.94,10.26"/><path class="cls-1" d="M488.64,111.45a2.38,2.38,0,0,1,.16,3.25c-5.27,6.15-12.33,9.25-21.35,9.25-8.14,0-14.7-2.53-19.77-7.51s-7.62-11.5-7.62-19.55,2.54-14.7,7.62-19.67,11.63-7.51,19.77-7.51c9,0,14.59,2.9,20.08,8.6a2.38,2.38,0,0,1-.06,3.36l-6,5.78a3.28,3.28,0,0,1-4.64-.1h0a12.21,12.21,0,0,0-8.89-4c-7.61,0-12.58,5.4-12.58,13.54s5,13.54,12.58,13.54a13.21,13.21,0,0,0,10-4.67,3.27,3.27,0,0,1,4.62-.15h0v0Z"/><path class="cls-1" d="M371.62,122.57a2.64,2.64,0,0,1-2.35,1.38H359.21a3.28,3.28,0,0,1-2.79-1.54l-7.93-13.73-8.2,13.94a2.86,2.86,0,0,1-2.4,1.33h-10a2.83,2.83,0,0,1-2.4-4.33l14.58-23.48L326.49,74.27a2.83,2.83,0,0,1,.91-3.9,2.93,2.93,0,0,1,1.5-.42h10a2.78,2.78,0,0,1,2.4,1.34l7.12,11.47,7-11.26A3.24,3.24,0,0,1,358.2,70h10.06a2.69,2.69,0,0,1,2.68,2.7,2.77,2.77,0,0,1-.4,1.4l-13.8,22.09,14.77,23.73A2.67,2.67,0,0,1,371.62,122.57Z"/><path class="cls-1" d="M278,54V70h24.33a4.35,4.35,0,0,1,4.35,4.35h0v6.06a4.35,4.35,0,0,1-4.35,4.35H278v24h32.06a4.35,4.35,0,0,1,4.35,4.35h0v6.52a4.35,4.35,0,0,1-4.35,4.35H264a4.35,4.35,0,0,1-4.35-4.35h0V43.14A4.35,4.35,0,0,1,264,38.79h46.1a4.35,4.35,0,0,1,4.35,4.35h0V49.6A4.35,4.35,0,0,1,310.07,54h0Z"/><path class="cls-2" d="M24,169.14a23.88,23.88,0,0,1-2.77-47.58A25.58,25.58,0,0,1,24,121.4a23.79,23.79,0,0,1,12.72,3.68,8.61,8.61,0,0,0,4.58,1.31,9.44,9.44,0,0,0,4.8-1.34,9.11,9.11,0,0,0,4.45-8.3A23.89,23.89,0,0,1,71.67,91.32a25.79,25.79,0,0,1,2.64-.14A23.77,23.77,0,0,1,87,94.86a8.65,8.65,0,0,0,4.62,1.32,9.4,9.4,0,0,0,4.78-1.34l.1-.06a9.07,9.07,0,0,0,4.34-8.23,23.9,23.9,0,0,1,21.5-25.46c.77-.07,1.54-.11,2.31-.11a23.88,23.88,0,0,1,2.77,47.58,23.39,23.39,0,0,1-2.77.16h0a23.72,23.72,0,0,1-12.71-3.67,8.58,8.58,0,0,0-4.59-1.31,9.34,9.34,0,0,0-4.8,1.34,9.08,9.08,0,0,0-4.44,8.3,23.65,23.65,0,0,1-21.17,25.41c-.89.09-1.77.14-2.66.15a23.78,23.78,0,0,1-12.7-3.68A8.62,8.62,0,0,0,57,134a9.19,9.19,0,0,0-4.79,1.34l-.11.06a9,9,0,0,0-4.33,8.23,24.36,24.36,0,0,1,0,3.82A23.82,23.82,0,0,1,26.31,169,17.1,17.1,0,0,1,24,169.14Z"/><path class="cls-3" d="M24,108.71a23.88,23.88,0,0,1-2.74-47.57A25.58,25.58,0,0,1,24,61a23.73,23.73,0,0,1,12.76,3.69A8.61,8.61,0,0,0,41.32,66a9.44,9.44,0,0,0,4.8-1.34,9.11,9.11,0,0,0,4.45-8.3A23.88,23.88,0,0,1,72.06,30.89a22.38,22.38,0,0,1,2.32-.11,23.88,23.88,0,0,1,2.77,47.58,25.71,25.71,0,0,1-2.77.15,23.66,23.66,0,0,1-12.72-3.67,8.53,8.53,0,0,0-4.58-1.31,9.34,9.34,0,0,0-4.8,1.34,9.08,9.08,0,0,0-4.44,8.3,24.23,24.23,0,0,1,0,3.81,23.83,23.83,0,0,1-21.43,21.64c-.78.07-1.57.11-2.34.11h0Z"/><circle class="cls-4" cx="24.11" cy="24.11" r="24.11"/></g></g></svg>