<svg xmlns="http://www.w3.org/2000/svg" xmlns:xlink="http://www.w3.org/1999/xlink" viewBox="0 0 289.1 289.1"><defs><style>.cls-1{fill:url(#linear-gradient);}.cls-2{fill:url(#linear-gradient-2);}.cls-3{fill:url(#linear-gradient-3);}.cls-4{fill:url(#linear-gradient-4);}</style><linearGradient id="linear-gradient" x1="105.26" y1="217.71" x2="164.87" y2="155.94" gradientUnits="userSpaceOnUse"><stop offset="0" stop-color="#f9c300"/><stop offset="1" stop-color="#f2e900"/></linearGradient><linearGradient id="linear-gradient-2" x1="78.33" y1="191.73" x2="137.94" y2="129.95" xlink:href="#linear-gradient"/><linearGradient id="linear-gradient-3" x1="0.57" y1="-592.19" x2="171.13" y2="-421.63" gradientTransform="matrix(1, 0, 0, -1, 0, -303.66)" xlink:href="#linear-gradient"/><linearGradient id="linear-gradient-4" x1="51.4" y1="165.73" x2="111.01" y2="103.96" xlink:href="#linear-gradient"/></defs><title>rlc-icon</title><g id="Layer_2" data-name="Layer 2"><g id="Layer_1-2" data-name="Layer 1"><path class="cls-1" d="M115,209a18,18,0,1,1,9.6-33.26,6.49,6.49,0,0,0,3.46,1,7.12,7.12,0,0,0,3.62-1,6.88,6.88,0,0,0,3.36-6.26,18,18,0,0,1,16-19.19,19,19,0,0,1,2-.11,17.88,17.88,0,0,1,9.58,2.78,6.47,6.47,0,0,0,3.48,1,7.06,7.06,0,0,0,3.61-1h.08a6.87,6.87,0,0,0,3.28-6.22,18,18,0,0,1,16.22-19.21c.58,0,1.17-.08,1.75-.08a18,18,0,0,1,0,36h0a17.82,17.82,0,0,1-9.6-2.77,6.54,6.54,0,0,0-3.46-1,7,7,0,0,0-3.62,1A6.85,6.85,0,0,0,171,167a19.23,19.23,0,0,1,0,2.84,18,18,0,0,1-16,16.34,19.3,19.3,0,0,1-2,.11,17.86,17.86,0,0,1-9.59-2.78,6.57,6.57,0,0,0-3.47-1,7.07,7.07,0,0,0-3.62,1h-.08a6.82,6.82,0,0,0-3.27,6.22,19.77,19.77,0,0,1,0,2.88,18,18,0,0,1-16.18,16.32Q115.85,209,115,209Z"/><path class="cls-2" d="M115,163.4a18,18,0,0,1-2.07-35.9,18.22,18.22,0,0,1,2.1-.12,17.91,17.91,0,0,1,9.59,2.78,6.49,6.49,0,0,0,3.46,1,7.12,7.12,0,0,0,3.62-1A6.85,6.85,0,0,0,135,123.9a18,18,0,0,1,16.23-19.21,16.63,16.63,0,0,1,1.74-.08,18,18,0,0,1,2.1,35.91,18.48,18.48,0,0,1-2.1.12,18,18,0,0,1-9.59-2.77,6.4,6.4,0,0,0-3.47-1,7,7,0,0,0-3.62,1,6.83,6.83,0,0,0-3.35,6.26,19.77,19.77,0,0,1,0,2.88,18,18,0,0,1-16.18,16.33c-.59,0-1.18.09-1.77.09h0Z"/><path class="cls-3" d="M144.37,289.1a144.54,144.54,0,1,1,56.45-11.4A144.55,144.55,0,0,1,144.37,289.1Zm0-247A102.05,102.05,0,1,0,216.51,72,102,102,0,0,0,144.37,42.1Z"/><circle class="cls-4" cx="114.91" cy="99.92" r="17.95"/></g></g></svg>